<svg width="640" height="420" viewBox="0 0 640 420" fill="none" xmlns="http://www.w3.org/2000/svg">
  <rect width="640" height="420" rx="24" fill="#EAF6EA"/>
  <rect x="52" y="52" width="536" height="316" rx="20" fill="#0F172A"/>
  <rect x="182" y="112" width="276" height="196" rx="16" fill="#1E293B" stroke="#4FAE58" stroke-width="4"/>
  <rect x="220" y="146" width="200" height="22" rx="11" fill="#4FAE58" fill-opacity="0.2"/>
  <rect x="220" y="182" width="160" height="16" rx="8" fill="#68BF6E" fill-opacity="0.2"/>
  <rect x="220" y="210" width="188" height="16" rx="8" fill="#68BF6E" fill-opacity="0.2"/>
  <rect x="220" y="238" width="146" height="16" rx="8" fill="#68BF6E" fill-opacity="0.2"/>
  <rect x="172" y="138" width="10" height="16" rx="5" fill="#4FAE58"/>
  <rect x="172" y="166" width="10" height="16" rx="5" fill="#4FAE58"/>
  <rect x="172" y="194" width="10" height="16" rx="5" fill="#4FAE58"/>
  <rect x="172" y="222" width="10" height="16" rx="5" fill="#4FAE58"/>
  <rect x="172" y="250" width="10" height="16" rx="5" fill="#4FAE58"/>
  <rect x="458" y="138" width="10" height="16" rx="5" fill="#4FAE58"/>
  <rect x="458" y="166" width="10" height="16" rx="5" fill="#4FAE58"/>
  <rect x="458" y="194" width="10" height="16" rx="5" fill="#4FAE58"/>
  <rect x="458" y="222" width="10" height="16" rx="5" fill="#4FAE58"/>
  <rect x="458" y="250" width="10" height="16" rx="5" fill="#4FAE58"/>
  <circle cx="500" cy="120" r="16" fill="#4FAE58"/>
  <circle cx="500" cy="120" r="7" fill="#0F172A"/>
</svg>
